{
    "asset" : {
        "generator" : "Khronos glTF Blender I/O v1.7.33",
        "version" : "2.0"
    },
    "scene" : 0,
    "scenes" : [
        {
            "name" : "Scene",
            "nodes" : [
                0,
                1,
                2,
                3,
                4
            ]
        }
    ],
    "nodes" : [
        {
            "mesh" : 0,
            "name" : "Cube"
        },
        {
            "mesh" : 1,
            "name" : "Cube.001",
            "rotation" : [
                0,
                -0.5192154049873352,
                0,
                0.8546434044837952
            ],
            "translation" : [
                -0.2936255633831024,
                1.114197015762329,
                0.9747378826141357
            ]
        },
        {
            "mesh" : 2,
            "name" : "Cube.002",
            "rotation" : [
                0,
                0.22628840804100037,
                0,
                0.9740603566169739
            ],
            "translation" : [
                1.8190516233444214,
                1.0551881790161133,
                2.6743364334106445
            ]
        },
        {
            "mesh" : 3,
            "name" : "Cube.003",
            "rotation" : [
                0,
                -0.19934901595115662,
                0,
                0.9799285531044006
            ],
            "translation" : [
                -1.8435264825820923,
                1.0551881790161133,
                2.679762363433838
            ]
        },
        {
            "mesh" : 4,
            "name" : "Cube.004",
            "translation" : [
                0,
                0.023182718083262444,
                0
            ]
        }
    ],
    "materials" : [
        {
            "doubleSided" : true,
            "name" : "Material",
            "pbrMetallicRoughness" : {
                "metallicFactor" : 0,
                "roughnessFactor" : 0.4000000059604645
            }
        },
        {
            "doubleSided" : true,
            "emissiveFactor" : [
                1,
                1,
                0
            ],
            "name" : "Material.001",
            "pbrMetallicRoughness" : {
                "baseColorFactor" : [
                    0.8000000715255737,
                    0,
                    0.0040869941003620625,
                    1
                ],
                "metallicFactor" : 0,
                "roughnessFactor" : 0.5
            }
        },
        {
            "doubleSided" : true,
            "emissiveFactor" : [
                1,
                0.1818798392886034,
                0
            ],
            "name" : "Material.003",
            "pbrMetallicRoughness" : {
                "baseColorFactor" : [
                    0.8000000715255737,
                    0,
                    0.092946358025074,
                    1
                ],
                "metallicFactor" : 0,
                "roughnessFactor" : 0.5
            }
        }
    ],
    "meshes" : [
        {
            "name" : "Cube",
            "primitives" : [
                {
                    "attributes" : {
                        "POSITION" : 0,
                        "NORMAL" : 1,
                        "TEXCOORD_0" : 2
                    },
                    "indices" : 3,
                    "material" : 0
                },
                {
                    "attributes" : {
                        "POSITION" : 4,
                        "NORMAL" : 5,
                        "TEXCOORD_0" : 6
                    },
                    "indices" : 7,
                    "material" : 1
                }
            ]
        },
        {
            "name" : "Cube.001",
            "primitives" : [
                {
                    "attributes" : {
                        "POSITION" : 8,
                        "NORMAL" : 9,
                        "TEXCOORD_0" : 10
                    },
                    "indices" : 11,
                    "material" : 0
                }
            ]
        },
        {
            "name" : "Cube.002",
            "primitives" : [
                {
                    "attributes" : {
                        "POSITION" : 12,
                        "NORMAL" : 13,
                        "TEXCOORD_0" : 14
                    },
                    "indices" : 15,
                    "material" : 0
                },
                {
                    "attributes" : {
                        "POSITION" : 16,
                        "NORMAL" : 17,
                        "TEXCOORD_0" : 18
                    },
                    "indices" : 19,
                    "material" : 2
                }
            ]
        },
        {
            "name" : "Cube.003",
            "primitives" : [
                {
                    "attributes" : {
                        "POSITION" : 20,
                        "NORMAL" : 21,
                        "TEXCOORD_0" : 22
                    },
                    "indices" : 23,
                    "material" : 0
                },
                {
                    "attributes" : {
                        "POSITION" : 24,
                        "NORMAL" : 25,
                        "TEXCOORD_0" : 26
                    },
                    "indices" : 27,
                    "material" : 2
                }
            ]
        },
        {
            "name" : "Cube.004",
            "primitives" : [
                {
                    "attributes" : {
                        "POSITION" : 28,
                        "NORMAL" : 29,
                        "TEXCOORD_0" : 30
                    },
                    "indices" : 31,
                    "material" : 0
                }
            ]
        }
    ],
    "accessors" : [
        {
            "bufferView" : 0,
            "componentType" : 5126,
            "count" : 3486,
            "max" : [
                2.1041531562805176,
                3.6172633171081543,
                2.7425143718719482
            ],
            "min" : [
                -2.1041531562805176,
                0.035912394523620605,
                -2.1008007526397705
            ],
            "type" : "VEC3"
        },
        {
            "bufferView" : 1,
            "componentType" : 5126,
            "count" : 3486,
            "type" : "VEC3"
        },
        {
            "bufferView" : 2,
            "componentType" : 5126,
            "count" : 3486,
            "type" : "VEC2"
        },
        {
            "bufferView" : 3,
            "componentType" : 5123,
            "count" : 6054,
            "type" : "SCALAR"
        },
        {
            "bufferView" : 4,
            "componentType" : 5126,
            "count" : 128,
            "max" : [
                2.074019432067871,
                3.6172633171081543,
                2.7103652954101562
            ],
            "min" : [
                -2.074019432067871,
                1.0767680406570435,
                -2.0686516761779785
            ],
            "type" : "VEC3"
        },
        {
            "bufferView" : 5,
            "componentType" : 5126,
            "count" : 128,
            "type" : "VEC3"
        },
        {
            "bufferView" : 6,
            "componentType" : 5126,
            "count" : 128,
            "type" : "VEC2"
        },
        {
            "bufferView" : 7,
            "componentType" : 5123,
            "count" : 192,
            "type" : "SCALAR"
        },
        {
            "bufferView" : 8,
            "componentType" : 5126,
            "count" : 132,
            "max" : [
                0.6177670955657959,
                0.1484813690185547,
                0.12295031547546387
            ],
            "min" : [
                -0.030515998601913452,
                -0.9917901158332825,
                -0.0363997220993042
            ],
            "type" : "VEC3"
        },
        {
            "bufferView" : 9,
            "componentType" : 5126,
            "count" : 132,
            "type" : "VEC3"
        },
        {
            "bufferView" : 10,
            "componentType" : 5126,
            "count" : 132,
            "type" : "VEC2"
        },
        {
            "bufferView" : 11,
            "componentType" : 5123,
            "count" : 216,
            "type" : "SCALAR"
        },
        {
            "bufferView" : 12,
            "componentType" : 5126,
            "count" : 204,
            "max" : [
                0.08525347709655762,
                1.3828277587890625e-05,
                0.0667119026184082
            ],
            "min" : [
                -1.8017553091049194,
                -0.9705591201782227,
                -0.0826725959777832
            ],
            "type" : "VEC3"
        },
        {
            "bufferView" : 13,
            "componentType" : 5126,
            "count" : 204,
            "type" : "VEC3"
        },
        {
            "bufferView" : 14,
            "componentType" : 5126,
            "count" : 204,
            "type" : "VEC2"
        },
        {
            "bufferView" : 15,
            "componentType" : 5123,
            "count" : 312,
            "type" : "SCALAR"
        },
        {
            "bufferView" : 16,
            "componentType" : 5126,
            "count" : 16,
            "max" : [
                -1.700321912765503,
                -0.062297627329826355,
                0.03424715995788574
            ],
            "min" : [
                -1.8017553091049194,
                -0.25924378633499146,
                -0.05020713806152344
            ],
            "type" : "VEC3"
        },
        {
            "bufferView" : 17,
            "componentType" : 5126,
            "count" : 16,
            "type" : "VEC3"
        },
        {
            "bufferView" : 18,
            "componentType" : 5126,
            "count" : 16,
            "type" : "VEC2"
        },
        {
            "bufferView" : 19,
            "componentType" : 5123,
            "count" : 24,
            "type" : "SCALAR"
        },
        {
            "bufferView" : 20,
            "componentType" : 5126,
            "count" : 204,
            "max" : [
                1.8113086223602295,
                1.3828277587890625e-05,
                0.06128525733947754
            ],
            "min" : [
                -0.07570004463195801,
                -0.9705591201782227,
                -0.08809924125671387
            ],
            "type" : "VEC3"
        },
        {
            "bufferView" : 21,
            "componentType" : 5126,
            "count" : 204,
            "type" : "VEC3"
        },
        {
            "bufferView" : 22,
            "componentType" : 5126,
            "count" : 204,
            "type" : "VEC2"
        },
        {
            "bufferView" : 23,
            "componentType" : 5123,
            "count" : 312,
            "type" : "SCALAR"
        },
        {
            "bufferView" : 24,
            "componentType" : 5126,
            "count" : 16,
            "max" : [
                1.8113086223602295,
                -0.062297627329826355,
                0.028819799423217773
            ],
            "min" : [
                1.709875464439392,
                -0.25924378633499146,
                -0.055634260177612305
            ],
            "type" : "VEC3"
        },
        {
            "bufferView" : 25,
            "componentType" : 5126,
            "count" : 16,
            "type" : "VEC3"
        },
        {
            "bufferView" : 26,
            "componentType" : 5126,
            "count" : 16,
            "type" : "VEC2"
        },
        {
            "bufferView" : 27,
            "componentType" : 5123,
            "count" : 24,
            "type" : "SCALAR"
        },
        {
            "bufferView" : 28,
            "componentType" : 5126,
            "count" : 108,
            "max" : [
                2.154280424118042,
                0.035912394523620605,
                2.7959940433502197
            ],
            "min" : [
                -2.154280424118042,
                -0.03928620368242264,
                -2.154280424118042
            ],
            "type" : "VEC3"
        },
        {
            "bufferView" : 29,
            "componentType" : 5126,
            "count" : 108,
            "type" : "VEC3"
        },
        {
            "bufferView" : 30,
            "componentType" : 5126,
            "count" : 108,
            "type" : "VEC2"
        },
        {
            "bufferView" : 31,
            "componentType" : 5123,
            "count" : 180,
            "type" : "SCALAR"
        }
    ],
    "bufferViews" : [
        {
            "buffer" : 0,
            "byteLength" : 41832,
            "byteOffset" : 0
        },
        {
            "buffer" : 0,
            "byteLength" : 41832,
            "byteOffset" : 41832
        },
        {
            "buffer" : 0,
            "byteLength" : 27888,
            "byteOffset" : 83664
        },
        {
            "buffer" : 0,
            "byteLength" : 12108,
            "byteOffset" : 111552
        },
        {
            "buffer" : 0,
            "byteLength" : 1536,
            "byteOffset" : 123660
        },
        {
            "buffer" : 0,
            "byteLength" : 1536,
            "byteOffset" : 125196
        },
        {
            "buffer" : 0,
            "byteLength" : 1024,
            "byteOffset" : 126732
        },
        {
            "buffer" : 0,
            "byteLength" : 384,
            "byteOffset" : 127756
        },
        {
            "buffer" : 0,
            "byteLength" : 1584,
            "byteOffset" : 128140
        },
        {
            "buffer" : 0,
            "byteLength" : 1584,
            "byteOffset" : 129724
        },
        {
            "buffer" : 0,
            "byteLength" : 1056,
            "byteOffset" : 131308
        },
        {
            "buffer" : 0,
            "byteLength" : 432,
            "byteOffset" : 132364
        },
        {
            "buffer" : 0,
            "byteLength" : 2448,
            "byteOffset" : 132796
        },
        {
            "buffer" : 0,
            "byteLength" : 2448,
            "byteOffset" : 135244
        },
        {
            "buffer" : 0,
            "byteLength" : 1632,
            "byteOffset" : 137692
        },
        {
            "buffer" : 0,
            "byteLength" : 624,
            "byteOffset" : 139324
        },
        {
            "buffer" : 0,
            "byteLength" : 192,
            "byteOffset" : 139948
        },
        {
            "buffer" : 0,
            "byteLength" : 192,
            "byteOffset" : 140140
        },
        {
            "buffer" : 0,
            "byteLength" : 128,
            "byteOffset" : 140332
        },
        {
            "buffer" : 0,
            "byteLength" : 48,
            "byteOffset" : 140460
        },
        {
            "buffer" : 0,
            "byteLength" : 2448,
            "byteOffset" : 140508
        },
        {
            "buffer" : 0,
            "byteLength" : 2448,
            "byteOffset" : 142956
        },
        {
            "buffer" : 0,
            "byteLength" : 1632,
            "byteOffset" : 145404
        },
        {
            "buffer" : 0,
            "byteLength" : 624,
            "byteOffset" : 147036
        },
        {
            "buffer" : 0,
            "byteLength" : 192,
            "byteOffset" : 147660
        },
        {
            "buffer" : 0,
            "byteLength" : 192,
            "byteOffset" : 147852
        },
        {
            "buffer" : 0,
            "byteLength" : 128,
            "byteOffset" : 148044
        },
        {
            "buffer" : 0,
            "byteLength" : 48,
            "byteOffset" : 148172
        },
        {
            "buffer" : 0,
            "byteLength" : 1296,
            "byteOffset" : 148220
        },
        {
            "buffer" : 0,
            "byteLength" : 1296,
            "byteOffset" : 149516
        },
        {
            "buffer" : 0,
            "byteLength" : 864,
            "byteOffset" : 150812
        },
        {
            "buffer" : 0,
            "byteLength" : 360,
            "byteOffset" : 151676
        }
    ],
    "buffers" : [
        {
            "byteLength" : 152036,
            "uri" : "data:application/octet-stream;base64,"
        }
    ]
}
